<svg xmlns="http://www.w3.org/2000/svg" width="15" height="15" viewBox="0 0 15 15">
  <path id="Operazioni_Importo" d="M15,1.8C15,.631,12.681,0,10.5,0S6,.631,6,1.8a.864.864,0,0,0,.021.19A.3.3,0,0,0,6,2.1V3.9a.864.864,0,0,0,.021.19A.3.3,0,0,0,6,4.2v1a11.325,11.325,0,0,0-1.5-.1C2.319,5.1,0,5.731,0,6.9a.864.864,0,0,0,.021.19A.3.3,0,0,0,0,7.2V9a.864.864,0,0,0,.021.19A.3.3,0,0,0,0,9.3v1.8a.864.864,0,0,0,.021.19A.3.3,0,0,0,0,11.4v1.8C0,14.369,2.319,15,4.5,15S9,14.369,9,13.2V11.9a11.406,11.406,0,0,0,1.5.1c2.181,0,4.5-.631,4.5-1.8V8.4a.294.294,0,0,0-.021-.11A.846.846,0,0,0,15,8.1V6.3a.294.294,0,0,0-.021-.11A.846.846,0,0,0,15,6V4.2a.294.294,0,0,0-.021-.11A.846.846,0,0,0,15,3.9V2.1a.294.294,0,0,0-.021-.11A.846.846,0,0,0,15,1.8ZM8.4,13.2c0,.489-1.519,1.2-3.9,1.2S.6,13.689.6,13.2V12.032a7.65,7.65,0,0,0,3.9.868,7.65,7.65,0,0,0,3.9-.868V13.2Zm0-2.1c0,.489-1.519,1.2-3.9,1.2S.6,11.589.6,11.1V9.932a7.65,7.65,0,0,0,3.9.868,7.65,7.65,0,0,0,3.9-.868V11.1ZM8.4,9c0,.489-1.519,1.2-3.9,1.2S.6,9.489.6,9V7.832A7.65,7.65,0,0,0,4.5,8.7a7.65,7.65,0,0,0,3.9-.868V9ZM4.5,8.1C2.119,8.1.6,7.389.6,6.9S2.119,5.7,4.5,5.7s3.9.711,3.9,1.2S6.881,8.1,4.5,8.1Zm9.9,2.1c0,.489-1.519,1.2-3.9,1.2a10.676,10.676,0,0,1-1.519-.1l0-.006A.829.829,0,0,0,9,11.1V9.8a11.469,11.469,0,0,0,1.5.1,7.65,7.65,0,0,0,3.9-.868V10.2Zm0-2.1c0,.489-1.519,1.2-3.9,1.2a10.688,10.688,0,0,1-1.519-.1l0-.006A.829.829,0,0,0,9,9V7.7a11.407,11.407,0,0,0,1.5.1,7.653,7.653,0,0,0,3.9-.867V8.1Zm0-2.1c0,.489-1.519,1.2-3.9,1.2a10.893,10.893,0,0,1-1.519-.1l0-.006A.829.829,0,0,0,9,6.9c0-.787-1.049-1.329-2.4-1.6V4.833a7.653,7.653,0,0,0,3.9.867,7.653,7.653,0,0,0,3.9-.867V6Zm0-2.1c0,.489-1.519,1.2-3.9,1.2S6.6,4.389,6.6,3.9V2.733a7.653,7.653,0,0,0,3.9.867,7.653,7.653,0,0,0,3.9-.867V3.9ZM10.5,3C8.119,3,6.6,2.289,6.6,1.8S8.119.6,10.5.6s3.9.711,3.9,1.2S12.881,3,10.5,3Z" fill="#258900"/>
</svg>
