<svg xmlns="http://www.w3.org/2000/svg" width="20" height="40" viewBox="0 0 16 8.5">
  <path id="arrow" data-name="arrow" d="M.03,14.46c.63-.63,1.26-1.29,1.86-1.98,1.62-1.62,3.18-3.3,4.8-4.98-.42-.45-.84-.87-1.26-1.32-.33-.36-.66-.69-1.02-1.05C3.03,3.63,1.53,2.1.09.6A2.832,2.832,0,0,1,0,.33.329.329,0,0,1,.33,0c.33,0,.51.39.81.66.21.21.45.45.66.69.33.36.66.72,1.02,1.05,1.5,1.62,3.06,3.21,4.56,4.8a.9.9,0,0,1,.12.3.479.479,0,0,1-.09.24c-.36.42-.72.78-1.11,1.17-.33.33-.66.69-.99,1.02C3.75,11.61,2.19,13.29.6,14.91A.363.363,0,0,1,.33,15,.333.333,0,0,1,0,14.67a.511.511,0,0,1,.03-.21Z" fill="none" stroke="#fff" stroke-width="1"/>
</svg>
