<svg xmlns="http://www.w3.org/2000/svg" width="20" height="13.978" viewBox="0 0 20 13.978">
  <path id="Tracciato_83446" data-name="Tracciato 83446" d="M19.752,1.36H4.927A2.732,2.732,0,0,0,2.35,3.972V12.9a2.422,2.422,0,0,0,2.379,2.421H15.283v-.8H4.75a1.638,1.638,0,0,1-1.6-1.638V6.627H21.51V8.4h0V12.86a1.638,1.638,0,0,1-1.588,1.659H15.283v.819h4.645a2.492,2.492,0,0,0,2.421-2.457V3.93a2.669,2.669,0,0,0-2.6-2.57ZM21.51,4.4H3.155V3.972A1.956,1.956,0,0,1,4.927,2.144H19.752A1.892,1.892,0,0,1,21.524,3.93V4.4Z" transform="translate(-2.35 -1.36)" fill="#6f6f6f"/>
</svg>
