<svg xmlns="http://www.w3.org/2000/svg" width="26.562" height="19.886" viewBox="0 0 26.562 19.886">
  <g id="Raggruppa_20852" data-name="Raggruppa 20852" transform="translate(-317.223 -172.867)">
    <line id="Linea_4415" data-name="Linea 4415" x2="1.918" y2="4.914" transform="translate(318 178.39)" fill="none" stroke="#258900" stroke-linecap="round" stroke-width="1.2"/>
    <line id="Linea_4416" data-name="Linea 4416" y1="4.497" x2="1.885" transform="translate(341.115 178.808)" fill="none" stroke="#258900" stroke-linecap="round" stroke-width="1.2"/>
    <line id="Linea_4417" data-name="Linea 4417" y2="5.341" transform="translate(330.518 173.467)" fill="none" stroke="#258900" stroke-linecap="round" stroke-width="1.2"/>
    <line id="Linea_4418" data-name="Linea 4418" x2="0.858" y2="5.069" transform="translate(323.963 174.803)" fill="none" stroke="#258900" stroke-linecap="round" stroke-width="1.2"/>
    <line id="Linea_4419" data-name="Linea 4419" y1="5.069" x2="0.853" transform="translate(336.216 174.803)" fill="none" stroke="#258900" stroke-linecap="round" stroke-width="1.2"/>
    <path id="Tracciato_76424" data-name="Tracciato 76424" d="M47.866,48.132S42.327,41.46,35.474,41.46,23.1,48.132,23.1,48.132" transform="translate(295.027 137.348)" fill="none" stroke="#258900" stroke-linecap="round" stroke-width="1.2"/>
    <path id="Tracciato_76425" data-name="Tracciato 76425" d="M23.283,55.38l-.078.08-.064.066S28.66,62.2,35.513,62.2s12.373-6.672,12.373-6.672l-.064-.066-.078-.08" transform="translate(295.005 129.955)" fill="none" stroke="#258900" stroke-linecap="round" stroke-width="1.2"/>
    <circle id="Ellisse_1016" data-name="Ellisse 1016" cx="4.29" cy="4.29" r="4.29" transform="translate(326.228 181.19)" fill="#258900"/>
  </g>
</svg>
