<svg xmlns="http://www.w3.org/2000/svg" width="26.5" height="26.5" viewBox="0 0 26.5 26.5">
  <g id="Raggruppa_15721" data-name="Raggruppa 15721" transform="translate(0.75 0.75)">
    <g id="Group-11">
      <path id="Oval" d="M12.5,0A12.5,12.5,0,1,1,0,12.5,12.5,12.5,0,0,1,12.5,0Z" fill="#f2f2f2" stroke="#6f6f6f" stroke-linecap="round" stroke-width="1.5"/>
      <g id="Group-6" transform="translate(4.826 11.598)">
        <g id="Group-2">
          <g id="Group">
            <path id="Stroke-48" d="M.015,1.21H8.86" transform="translate(-0.015 -1.21)" fill="none" stroke="#a6a4a4" stroke-linecap="round" stroke-width="1.5" fill-rule="evenodd"/>
            <path id="Stroke-50" d="M.015,3.472H7.4" transform="translate(-0.015 -0.68)" fill="none" stroke="#a6a4a4" stroke-linecap="round" stroke-width="1.5" fill-rule="evenodd"/>
          </g>
        </g>
      </g>
      <g id="Raggruppa_16599" data-name="Raggruppa 16599">
        <path id="Stroke-46" d="M14.913,7.183A5.8,5.8,0,0,0,11.383,6a5.634,5.634,0,0,0-5.716,5.548A5.634,5.634,0,0,0,11.383,17.1a5.8,5.8,0,0,0,3.531-1.185" transform="translate(1.244 1.5)" fill="none" stroke="#6f6f6f" stroke-linecap="round" stroke-width="1.5" fill-rule="evenodd"/>
      </g>
    </g>
  </g>
</svg>
