<svg xmlns="http://www.w3.org/2000/svg" width="45" height="45" viewBox="0 0 45 45">
  <g id="Raggruppa_22673" data-name="Raggruppa 22673" transform="translate(11912 -2340)">
    <g id="Raggruppa_16141" data-name="Raggruppa 16141" transform="translate(-11925 1993)">
      <path id="Tracciato_76346" data-name="Tracciato 76346" d="M22.5,0A22.5,22.5,0,1,1,0,22.5,22.5,22.5,0,0,1,22.5,0Z" transform="translate(13 347)" fill="#e8f2e4"/>
    </g>
    <g id="pfm-isp-font-cat-805" transform="translate(-11902.563 2350.999)">
      <path id="Tracciato_720" data-name="Tracciato 720" d="M25.459,10.313,24.874,9.8l-2.536,2.39V4.125h-.781v8.063L19.07,9.8l-.634.516,3.511,3.422ZM7.61,5.11c.342.75.683,1.547.878,1.922.39.7,2.438.89,3.316.89h.146a5.29,5.29,0,0,0,2.926-.89.994.994,0,0,0,.244-.7A8.17,8.17,0,0,1,16,2.954c.244-.469.439-1.125.049-1.5-.244-.281-.683-.563-1.61-.188a1.479,1.479,0,0,0-.39.188c-.1.094-.439.281-.536.234a.348.348,0,0,1-.146-.234C12.877.095,12,0,11.658,0A1.766,1.766,0,0,0,10.1,1.36c-.1.375-.439.61-1.707.469-.926-.094-1.317.234-1.463.516a1.266,1.266,0,0,0,.1,1.359c.049.141.342.8.585,1.406ZM7.561,2.766c.049-.094.293-.188.732-.141.634.047,2.243.188,2.585-1.031.1-.422.439-.8.781-.8s.732.375.926.937a1.082,1.082,0,0,0,.634.656,1.956,1.956,0,0,0,1.268-.281.375.375,0,0,1,.2-.094c.488-.188.683-.094.732-.047.1.094.049.375-.1.61a7.694,7.694,0,0,0-.975,3.844s0,.047-.1.094a4.5,4.5,0,0,1-2.292.7A5.408,5.408,0,0,1,9.22,6.657c-.146-.281-.488-1.078-.781-1.875a16.443,16.443,0,0,0-.683-1.5.532.532,0,0,1-.2-.516Zm5.121,10.36a1.909,1.909,0,0,1,1.317.61c.049.047.049.047.1.047a.173.173,0,0,0,.1-.047l.244-.375v-.094a2.009,2.009,0,0,0-1.707-1.031,3.5,3.5,0,0,0-1.8.516,4.194,4.194,0,0,0-1.658,2.812H8.829a.1.1,0,0,0-.1.094l-.146.656c0,.047,0,.094.049.094s.049.047.1.047H9.22v.328H8.83a.1.1,0,0,0-.1.094l-.146.7c0,.047,0,.094.049.094s.049.047.1.047h.683a2.259,2.259,0,0,0,.244.75,3.038,3.038,0,0,0,3.121,1.875,1.906,1.906,0,0,0,1.414-.656.162.162,0,0,0,.049-.094v-.75a.1.1,0,0,0-.1-.094A.184.184,0,0,0,14,18.8a1.831,1.831,0,0,1-1.414.656,2.266,2.266,0,0,1-2.195-1.734h2.926a.1.1,0,0,0,.1-.094l.146-.7V16.83c0-.047-.049-.047-.1-.047H10.244v-.422h3.024a.1.1,0,0,0,.1-.094l.146-.656v-.094c0-.047-.049-.047-.1-.047H10.342a2.876,2.876,0,0,1,.926-1.875,2.05,2.05,0,0,1,1.414-.469Zm10.583,2.156c0-.094-.049-.141-.049-.234l-.781.516c0,.047.049.094.049.141a4.694,4.694,0,0,1,.293,1.828c.049,4.266-2.633,5.719-10.29,5.719-7.8,0-10.1-1.266-10.1-5.578,0-3.328,2.731-6.844,6.291-8.11a5.725,5.725,0,0,0,3.316.7,5.677,5.677,0,0,0,3.365-.937,3.037,3.037,0,0,1,.585-.422c.2.141.536.328.829.516l.342-.8A9.1,9.1,0,0,0,16,8.016l-.39-.188a2.857,2.857,0,0,1-.732.844c-.244.234-.926.75-2.877.844a4.625,4.625,0,0,1-2.877-.61.719.719,0,0,0-.536-.141c-4,1.359-7.023,5.2-7.023,8.907C1.563,23.063,5.22,24,12.487,24c7.023,0,11.119-1.078,11.119-6.516a6.192,6.192,0,0,0-.293-2.063c0-.047-.049-.094-.049-.141Z" fill="#258900" stroke="#258900" stroke-width="0.2"/>
    </g>
  </g>
</svg>
