<svg xmlns="http://www.w3.org/2000/svg" width="16.1" height="20.1" viewBox="0 0 16.1 20.1">
  <g id="noun_Share_540001" transform="translate(0.05 0.05)">
    <path id="Tracciato_76273" data-name="Tracciato 76273" d="M33.247,34.39H28.109v.828H32.8V46.562H18.592V35.218h4.689V34.39H18.143a.432.432,0,0,0-.448.414V46.976a.432.432,0,0,0,.448.414h15.1a.432.432,0,0,0,.448-.414V34.8A.432.432,0,0,0,33.247,34.39Z" transform="translate(-17.695 -27.39)" fill="#258900" stroke="#258900" stroke-width="0.1"/>
    <path id="Tracciato_76274" data-name="Tracciato 76274" d="M36.237,9.363,32.38,5.14a.407.407,0,0,0-.612,0L27.911,9.363a.507.507,0,0,0,0,.67.407.407,0,0,0,.612,0l3.118-3.415v8.688a.435.435,0,1,0,.866,0V6.619l3.118,3.415a.406.406,0,0,0,.612,0A.507.507,0,0,0,36.237,9.363Z" transform="translate(-24.074 -5.001)" fill="#258900" stroke="#258900" stroke-width="0.1"/>
  </g>
</svg>
