<svg xmlns="http://www.w3.org/2000/svg" width="24" height="22.841" viewBox="0 0 24 22.841">
  <path id="Tracciato_2436" data-name="Tracciato 2436" d="M19.078,24.013a.505.505,0,0,1-.281-.093l-6.834-4.306L5.13,23.92a.6.6,0,0,1-.562,0,.6.6,0,0,1-.187-.562L6.3,15.495l-6.132-5.1a.468.468,0,0,1-.187-.515A.5.5,0,0,1,.4,9.5l8.1-.562,3.043-7.489a.449.449,0,0,1,.421-.281.409.409,0,0,1,.421.281l3.043,7.489,8.1.562a.5.5,0,0,1,.421.374.528.528,0,0,1-.14.515l-6.225,5.149L19.5,23.4a.6.6,0,0,1-.187.562,2.032,2.032,0,0,1-.234.047Z" transform="translate(0.036 -1.172)" fill="#258900"/>
</svg>
