<svg xmlns="http://www.w3.org/2000/svg" width="25.999" height="26.5" viewBox="0 0 25.999 26.5">
  <g id="Raggruppa_15948" data-name="Raggruppa 15948" transform="translate(-29.961 -479.75)">
    <g id="Raggruppa_15584" data-name="Raggruppa 15584" transform="translate(30.711 480.5)">
      <g id="Group-9" transform="translate(0 0)">
        <g id="Group-4">
          <path id="Path" d="M37.92-8.939a11.493,11.493,0,0,0-3.587-8.569A12.027,12.027,0,0,0,25.622-21a11.909,11.909,0,0,0-8.614,3.491,11.437,11.437,0,0,0-3.587,8.521A11.619,11.619,0,0,0,17.008-.443a11.784,11.784,0,0,0,8.614,3.564A12.247,12.247,0,0,0,28.4,2.779q.2-.049.537-.122a5.407,5.407,0,0,0,.561-.146,1.346,1.346,0,0,1,.268-.073q.049,0,1.976.781A9.19,9.19,0,0,0,34.26,4q1.025,0,1.025-.928a2.981,2.981,0,0,0-.708-1.343A2.981,2.981,0,0,1,33.869.387q0-.488.244-.586A11.127,11.127,0,0,0,37.92-8.939Z" transform="translate(-13.421 21)" fill="#f2f2f2" stroke="#6f6f6f" stroke-linecap="round" stroke-width="1.5" fill-rule="evenodd"/>
        </g>
      </g>
      <g id="noun_Kebab_Menu_756732" data-name="noun_Kebab Menu_756732" transform="translate(16.591 11.401) rotate(90)">
        <circle id="Ellisse_1023" data-name="Ellisse 1023" cx="1.23" cy="1.23" r="1.23" transform="translate(0 7.558)" fill="#6f6f6f"/>
        <circle id="Ellisse_1024" data-name="Ellisse 1024" cx="1.23" cy="1.23" r="1.23" transform="translate(0 3.779)" fill="#a6a4a4"/>
        <circle id="Ellisse_1025" data-name="Ellisse 1025" cx="1.23" cy="1.23" r="1.23" transform="translate(0)" fill="#6f6f6f"/>
      </g>
    </g>
  </g>
</svg>
