<?xml version="1.0" standalone="no"?>
<!DOCTYPE svg PUBLIC "-//W3C//DTD SVG 20010904//EN"
 "http://www.w3.org/TR/2001/REC-SVG-20010904/DTD/svg10.dtd">
<svg version="1.0" xmlns="http://www.w3.org/2000/svg"
 width="300.000000pt" height="300.000000pt" viewBox="0 0 300.000000 300.000000"
 preserveAspectRatio="xMidYMid meet">
<metadata>
Created by potrace 1.14, written by Peter Selinger 2001-2017
</metadata>
<g transform="translate(0.000000,300.000000) scale(0.100000,-0.100000)"
fill="#000000" stroke="none">
<path d="M0 1500 l0 -1500 1500 0 1500 0 0 1500 0 1500 -1500 0 -1500 0 0
-1500z m1762 1026 c372 -95 665 -388 766 -765 22 -85 25 -115 25 -261 0 -146
-3 -176 -25 -261 -51 -191 -150 -360 -290 -495 -141 -137 -290 -222 -476 -271
-86 -23 -116 -26 -262 -26 -146 0 -176 3 -261 25 -191 51 -360 150 -495 290
-137 141 -222 290 -271 476 -23 86 -26 116 -26 262 0 146 3 176 26 262 51 193
147 356 290 495 166 161 357 257 583 293 103 16 307 4 416 -24z"/>
<path d="M1375 2433 c-133 -21 -301 -85 -402 -154 -69 -47 -188 -164 -239
-236 -58 -80 -117 -207 -146 -313 -32 -121 -32 -337 1 -460 47 -176 132 -321
262 -446 90 -86 146 -125 252 -174 138 -65 229 -84 397 -84 168 -1 257 18 397
84 106 50 162 88 252 174 130 125 215 270 262 446 33 122 33 338 0 460 -28
106 -87 233 -145 313 -51 72 -170 189 -239 236 -73 50 -202 107 -297 131 -84
22 -283 35 -355 23z m217 -504 c124 -27 241 -117 298 -229 134 -265 -26 -582
-320 -632 -291 -50 -552 211 -502 502 43 250 278 411 524 359z"/>
</g>
</svg>
